<?xml version="1.0" encoding="UTF-8"?>
<svg xmlns="http://www.w3.org/2000/svg" xmlns:xlink="http://www.w3.org/1999/xlink" width="460px" height="95px" viewBox="0 0 460 95" version="1.1">
<g id="surface1">
<path style=" stroke:none;fill-rule:nonzero;fill:rgb(20%,0%,44.705882%);fill-opacity:1;" d="M 29.375 57.304688 C 27.78125 54.644531 24.289062 53.730469 21.632812 55.328125 C 18.976562 56.925781 18.066406 60.421875 19.660156 63.078125 C 21.253906 65.738281 24.746094 66.652344 27.402344 65.054688 C 30.058594 63.535156 30.96875 60.039062 29.375 57.304688 "/>
<path style=" stroke:none;fill-rule:nonzero;fill:rgb(20%,0%,44.705882%);fill-opacity:1;" d="M 28.238281 77.898438 C 27.023438 75.847656 24.367188 75.164062 22.316406 76.378906 C 20.265625 77.597656 19.585938 80.257812 20.796875 82.308594 C 22.011719 84.359375 24.671875 85.042969 26.71875 83.828125 C 28.769531 82.613281 29.453125 79.953125 28.238281 77.898438 "/>
<path style=" stroke:none;fill-rule:nonzero;fill:rgb(20%,0%,44.705882%);fill-opacity:1;" d="M 29.375 37.390625 C 27.78125 34.730469 24.289062 33.820312 21.632812 35.414062 C 18.976562 37.011719 18.066406 40.507812 19.660156 43.167969 C 21.253906 45.828125 24.746094 46.738281 27.402344 45.144531 C 30.058594 43.546875 30.96875 40.128906 29.375 37.390625 "/>
<path style=" stroke:none;fill-rule:nonzero;fill:rgb(20%,0%,44.705882%);fill-opacity:1;" d="M 28.238281 18.164062 C 27.023438 16.113281 24.367188 15.429688 22.316406 16.644531 C 20.265625 17.859375 19.585938 20.519531 20.796875 22.570312 C 22.011719 24.625 24.671875 25.308594 26.71875 24.09375 C 28.769531 22.875 29.453125 20.214844 28.238281 18.164062 "/>
<path style=" stroke:none;fill-rule:nonzero;fill:rgb(20%,0%,44.705882%);fill-opacity:1;" d="M 49.339844 46.207031 C 47.367188 42.863281 43.039062 41.800781 39.777344 43.777344 C 36.4375 45.753906 35.371094 50.085938 37.347656 53.351562 C 39.320312 56.695312 43.648438 57.761719 46.910156 55.785156 C 50.25 53.808594 51.3125 49.550781 49.339844 46.207031 "/>
<path style=" stroke:none;fill-rule:nonzero;fill:rgb(20%,0%,44.705882%);fill-opacity:1;" d="M 48.203125 66.804688 C 46.605469 64.144531 43.117188 63.230469 40.457031 64.828125 C 37.800781 66.425781 36.890625 69.921875 38.484375 72.578125 C 40.078125 75.238281 43.570312 76.152344 46.226562 74.554688 C 48.960938 72.960938 49.796875 69.464844 48.203125 66.804688 "/>
<path style=" stroke:none;fill-rule:nonzero;fill:rgb(20%,0%,44.705882%);fill-opacity:1;" d="M 47.0625 86.640625 C 45.847656 84.589844 43.191406 83.902344 41.140625 85.121094 C 39.09375 86.335938 38.410156 88.996094 39.625 91.046875 C 40.839844 93.101562 43.496094 93.785156 45.542969 92.566406 C 47.59375 91.351562 48.277344 88.691406 47.0625 86.640625 "/>
<path style=" stroke:none;fill-rule:nonzero;fill:rgb(20%,0%,44.705882%);fill-opacity:1;" d="M 48.203125 26.980469 C 46.605469 24.320312 43.117188 23.40625 40.457031 25.003906 C 37.800781 26.601562 36.890625 30.097656 38.484375 32.757812 C 40.078125 35.414062 43.570312 36.328125 46.226562 34.730469 C 48.960938 33.136719 49.796875 29.640625 48.203125 26.980469 "/>
<path style=" stroke:none;fill-rule:nonzero;fill:rgb(20%,0%,44.705882%);fill-opacity:1;" d="M 47.0625 8.4375 C 45.847656 6.382812 43.191406 5.699219 41.140625 6.914062 C 39.09375 8.132812 38.410156 10.792969 39.625 12.84375 C 40.839844 14.894531 43.496094 15.578125 45.542969 14.363281 C 47.59375 13.222656 48.277344 10.5625 47.0625 8.4375 "/>
<path style=" stroke:none;fill-rule:nonzero;fill:rgb(20%,0%,44.705882%);fill-opacity:1;" d="M 10.476562 67.714844 C 9.261719 65.664062 6.605469 64.980469 4.554688 66.195312 C 2.503906 67.410156 1.820312 70.070312 3.035156 72.125 C 4.25 74.175781 6.90625 74.859375 8.957031 73.644531 C 11.082031 72.429688 11.691406 69.769531 10.476562 67.714844 "/>
<path style=" stroke:none;fill-rule:nonzero;fill:rgb(20%,0%,44.705882%);fill-opacity:1;" d="M 10.476562 48.5625 C 9.261719 46.511719 6.605469 45.828125 4.554688 47.042969 C 2.503906 48.261719 1.820312 50.921875 3.035156 52.972656 C 4.25 55.023438 6.90625 55.707031 8.957031 54.492188 C 11.082031 53.277344 11.691406 50.617188 10.476562 48.5625 "/>
<path style=" stroke:none;fill-rule:nonzero;fill:rgb(20%,0%,44.705882%);fill-opacity:1;" d="M 10.476562 29.335938 C 9.261719 27.285156 6.605469 26.601562 4.554688 27.816406 C 2.503906 29.03125 1.820312 31.691406 3.035156 33.742188 C 4.25 35.796875 6.90625 36.480469 8.957031 35.265625 C 11.082031 34.046875 11.691406 31.386719 10.476562 29.335938 "/>
<path style=" stroke:none;fill-rule:nonzero;fill:rgb(20%,0%,44.705882%);fill-opacity:1;" d="M 57.386719 42.257812 C 58.980469 44.914062 62.472656 45.828125 65.128906 44.230469 C 67.785156 42.636719 68.695312 39.140625 67.101562 36.480469 C 65.507812 33.820312 62.015625 32.90625 59.359375 34.503906 C 56.703125 36.023438 55.792969 39.519531 57.386719 42.257812 "/>
<path style=" stroke:none;fill-rule:nonzero;fill:rgb(20%,0%,44.705882%);fill-opacity:1;" d="M 58.523438 21.660156 C 59.738281 23.710938 62.394531 24.394531 64.445312 23.179688 C 66.496094 21.964844 67.179688 19.304688 65.964844 17.253906 C 64.75 15.199219 62.09375 14.515625 60.042969 15.730469 C 57.992188 16.949219 57.308594 19.609375 58.523438 21.660156 "/>
<path style=" stroke:none;fill-rule:nonzero;fill:rgb(20%,0%,44.705882%);fill-opacity:1;" d="M 57.386719 62.167969 C 58.980469 64.828125 62.472656 65.738281 65.128906 64.144531 C 67.785156 62.546875 68.695312 59.050781 67.101562 56.390625 C 65.507812 53.730469 62.015625 52.820312 59.359375 54.414062 C 56.703125 56.011719 55.792969 59.433594 57.386719 62.167969 "/>
<path style=" stroke:none;fill-rule:nonzero;fill:rgb(20%,0%,44.705882%);fill-opacity:1;" d="M 58.523438 81.394531 C 59.738281 83.449219 62.394531 84.132812 64.445312 82.914062 C 66.496094 81.699219 67.179688 79.039062 65.964844 76.988281 C 64.75 74.9375 62.09375 74.253906 60.042969 75.46875 C 57.992188 76.683594 57.308594 79.34375 58.523438 81.394531 "/>
<path style=" stroke:none;fill-rule:nonzero;fill:rgb(20%,0%,44.705882%);fill-opacity:1;" d="M 76.289062 31.84375 C 77.5 33.894531 80.160156 34.578125 82.207031 33.363281 C 84.257812 32.148438 84.941406 29.488281 83.726562 27.4375 C 82.511719 25.382812 79.855469 24.699219 77.804688 25.914062 C 75.753906 27.132812 75.074219 29.792969 76.289062 31.84375 "/>
<path style=" stroke:none;fill-rule:nonzero;fill:rgb(20%,0%,44.705882%);fill-opacity:1;" d="M 76.289062 50.996094 C 77.5 53.046875 80.160156 53.730469 82.207031 52.515625 C 84.257812 51.300781 84.941406 48.640625 83.726562 46.589844 C 82.511719 44.535156 79.855469 43.851562 77.804688 45.066406 C 75.753906 46.285156 75.074219 48.945312 76.289062 50.996094 "/>
<path style=" stroke:none;fill-rule:nonzero;fill:rgb(20%,0%,44.705882%);fill-opacity:1;" d="M 76.289062 70.222656 C 77.5 72.277344 80.160156 72.960938 82.207031 71.742188 C 84.257812 70.527344 84.941406 67.867188 83.726562 65.816406 C 82.511719 63.765625 79.855469 63.078125 77.804688 64.296875 C 75.753906 65.511719 75.074219 68.171875 76.289062 70.222656 "/>
<path style=" stroke:none;fill-rule:nonzero;fill:rgb(20%,0%,44.705882%);fill-opacity:1;" d="M 275.316406 18.390625 C 278.65625 18.390625 281.3125 15.65625 281.3125 12.386719 C 281.3125 9.042969 278.582031 6.382812 275.316406 6.382812 C 271.976562 6.382812 269.320312 9.121094 269.320312 12.386719 C 269.320312 15.730469 271.976562 18.390625 275.316406 18.390625 "/>
<path style=" stroke:none;fill-rule:nonzero;fill:rgb(20%,0%,44.705882%);fill-opacity:1;" d="M 277.441406 25.003906 L 265.371094 28.195312 L 265.601562 30.097656 L 271.597656 29.261719 L 271.597656 64.601562 L 266.054688 65.285156 L 266.511719 65.285156 L 266.359375 67.410156 L 275.925781 67.261719 L 286.019531 67.410156 L 286.171875 65.285156 L 280.097656 64.601562 L 280.097656 24.851562 Z M 277.441406 25.003906 "/>
<path style=" stroke:none;fill-rule:nonzero;fill:rgb(20%,0%,44.705882%);fill-opacity:1;" d="M 266.054688 65.285156 L 259.984375 64.601562 L 259.984375 37.925781 C 259.984375 28.195312 258.011719 24.167969 248.292969 24.167969 L 233.566406 33.59375 L 233.265625 25.003906 L 230.835938 25.078125 L 218.765625 28.195312 L 219.070312 30.246094 L 225.140625 29.261719 L 225.140625 64.601562 L 219.601562 65.285156 L 219.980469 65.359375 L 219.828125 67.488281 L 229.542969 67.335938 L 237.96875 67.488281 L 238.121094 65.359375 L 233.566406 64.675781 L 233.566406 36.101562 L 236.605469 34.277344 C 239.945312 32.148438 242.601562 30.398438 245.710938 30.398438 C 249.433594 30.398438 251.40625 32.222656 251.40625 37.390625 L 251.40625 64.601562 L 247.003906 65.285156 L 247.308594 67.410156 L 255.960938 67.261719 L 265.980469 67.410156 L 265.675781 65.285156 Z M 266.054688 65.285156 "/>
<path style=" stroke:none;fill-rule:nonzero;fill:rgb(20%,0%,44.705882%);fill-opacity:1;" d="M 266.054688 65.285156 L 265.675781 65.285156 L 265.980469 67.410156 L 266.359375 67.410156 L 266.511719 65.285156 Z M 266.054688 65.285156 "/>
<path style=" stroke:none;fill-rule:nonzero;fill:rgb(20%,0%,44.705882%);fill-opacity:1;" d="M 266.054688 65.285156 L 265.675781 65.285156 L 265.980469 67.410156 L 266.359375 67.410156 L 266.511719 65.285156 Z M 266.054688 65.285156 "/>
<path style=" stroke:none;fill-rule:nonzero;fill:rgb(20%,0%,44.705882%);fill-opacity:1;" d="M 219.601562 65.285156 L 213.453125 64.601562 L 213.453125 38.304688 C 213.453125 28.425781 211.480469 24.167969 201.761719 24.167969 L 187.71875 33.59375 C 187.1875 27.132812 183.847656 24.167969 176.179688 24.167969 L 162.214844 33.441406 L 162.0625 24.929688 L 159.558594 25.003906 L 147.5625 28.121094 L 147.867188 30.171875 L 153.941406 29.183594 L 153.941406 64.601562 L 148.019531 65.285156 L 148.171875 67.410156 L 158.117188 67.261719 L 166.542969 67.410156 L 166.691406 65.285156 L 162.289062 64.601562 L 162.289062 36.253906 L 165.25 34.277344 C 168.058594 32.375 171.171875 30.550781 173.980469 30.550781 C 177.394531 30.550781 179.21875 32.375 179.21875 37.542969 L 179.21875 64.601562 L 175.117188 65.285156 L 175.269531 67.410156 L 183.773438 67.261719 L 191.742188 67.410156 L 192.046875 65.285156 L 187.871094 64.601562 L 187.871094 36.253906 L 190.832031 34.277344 C 193.5625 32.375 196.753906 30.550781 199.484375 30.550781 C 202.976562 30.550781 204.875 32.375 204.875 37.542969 L 204.875 64.601562 L 200.472656 65.285156 L 200.777344 67.410156 L 209.503906 67.261719 L 219.449219 67.410156 L 219.296875 65.285156 Z M 219.601562 65.285156 "/>
<path style=" stroke:none;fill-rule:nonzero;fill:rgb(20%,0%,44.705882%);fill-opacity:1;" d="M 219.601562 65.285156 L 219.222656 65.285156 L 219.371094 67.410156 L 219.753906 67.410156 L 219.902344 65.285156 Z M 219.601562 65.285156 "/>
<path style=" stroke:none;fill-rule:nonzero;fill:rgb(20%,0%,44.705882%);fill-opacity:1;" d="M 219.601562 65.285156 L 219.222656 65.285156 L 219.371094 67.410156 L 219.753906 67.410156 L 219.902344 65.285156 Z M 219.601562 65.285156 "/>
<path style=" stroke:none;fill-rule:nonzero;fill:rgb(20%,0%,44.705882%);fill-opacity:1;" d="M 127.601562 65.511719 C 120.085938 65.511719 114.925781 56.773438 114.925781 44.992188 C 114.925781 34.351562 118.492188 27.359375 125.398438 27.359375 C 132.761719 27.359375 138.152344 35.113281 138.152344 47.878906 C 138.152344 58.292969 134.507812 65.511719 127.601562 65.511719 M 127.675781 24.167969 C 114.394531 26.828125 105.816406 33.742188 105.816406 47.425781 C 105.816406 59.660156 113.863281 68.703125 125.324219 68.703125 C 138.757812 66.195312 147.183594 59.128906 147.183594 45.449219 C 147.183594 33.210938 139.214844 24.167969 127.675781 24.167969 "/>
</g>
</svg>
